<mxfile host="65bd71144e">
    <diagram id="lj3JHrsBOW_VckmbQgxF" name="Sequence">
        <mxGraphModel dx="2643" dy="885" grid="1" gridSize="10" guides="1" tooltips="1" connect="1" arrows="1" fold="1" page="1" pageScale="1" pageWidth="850" pageHeight="1100" math="0" shadow="0">
            <root>
                <mxCell id="0"/>
                <mxCell id="1" parent="0"/>
                <mxCell id="JR3lvSD2bUoOzHBzQH5V-1" value="&amp;lt;&amp;lt;System&amp;gt;&amp;gt; Logistic Provider" style="shape=umlLifeline;participant=umlActor;perimeter=lifelinePerimeter;whiteSpace=wrap;html=1;container=1;collapsible=0;recursiveResize=0;verticalAlign=top;spacingTop=36;outlineConnect=0;rounded=0;glass=0;size=40;align=center;" parent="1" vertex="1">
                    <mxGeometry x="40" y="80" width="20" height="840" as="geometry"/>
                </mxCell>
                <mxCell id="JR3lvSD2bUoOzHBzQH5V-2" value="" style="html=1;points=[];perimeter=orthogonalPerimeter;" parent="JR3lvSD2bUoOzHBzQH5V-1" vertex="1">
                    <mxGeometry x="5" y="100" width="10" height="40" as="geometry"/>
                </mxCell>
                <mxCell id="JR3lvSD2bUoOzHBzQH5V-3" value="Customer&lt;br&gt;" style="shape=umlLifeline;participant=umlActor;perimeter=lifelinePerimeter;whiteSpace=wrap;html=1;container=1;collapsible=0;recursiveResize=0;verticalAlign=top;spacingTop=36;outlineConnect=0;rounded=0;glass=0;size=40;align=center;" parent="1" vertex="1">
                    <mxGeometry x="1030" y="80" width="20" height="840" as="geometry"/>
                </mxCell>
                <mxCell id="ImeykOzW7Dzun4YUdv9i-1" value="" style="html=1;points=[];perimeter=orthogonalPerimeter;" parent="JR3lvSD2bUoOzHBzQH5V-3" vertex="1">
                    <mxGeometry x="5" y="280" width="10" height="70" as="geometry"/>
                </mxCell>
                <mxCell id="JR3lvSD2bUoOzHBzQH5V-4" value="Seller" style="shape=umlLifeline;participant=umlActor;perimeter=lifelinePerimeter;whiteSpace=wrap;html=1;container=1;collapsible=0;recursiveResize=0;verticalAlign=top;spacingTop=36;outlineConnect=0;rounded=0;glass=0;size=40;align=center;" parent="1" vertex="1">
                    <mxGeometry x="1450" y="80" width="20" height="840" as="geometry"/>
                </mxCell>
                <mxCell id="Bveo8Vso_6XRpk1jzpCJ-3" value="" style="html=1;points=[];perimeter=orthogonalPerimeter;" parent="JR3lvSD2bUoOzHBzQH5V-4" vertex="1">
                    <mxGeometry x="5" y="430" width="10" height="230" as="geometry"/>
                </mxCell>
                <mxCell id="JR3lvSD2bUoOzHBzQH5V-7" value="&amp;lt;&amp;lt;Entity&amp;gt;&amp;gt;&lt;br&gt;Orders" style="shape=umlLifeline;perimeter=lifelinePerimeter;whiteSpace=wrap;html=1;container=1;collapsible=0;recursiveResize=0;outlineConnect=0;" parent="1" vertex="1">
                    <mxGeometry x="580" y="80" width="100" height="840" as="geometry"/>
                </mxCell>
                <mxCell id="JR3lvSD2bUoOzHBzQH5V-8" value="" style="html=1;points=[];perimeter=orthogonalPerimeter;" parent="JR3lvSD2bUoOzHBzQH5V-7" vertex="1">
                    <mxGeometry x="45" y="130" width="10" height="50" as="geometry"/>
                </mxCell>
                <mxCell id="dxfa6Q4PMbKHfRvBcv8o-4" value="&lt;div style=&quot;text-align: center;&quot;&gt;&lt;span style=&quot;background-color: rgb(24, 20, 29);&quot;&gt;GetFeedbackForm()&lt;/span&gt;&lt;/div&gt;" style="text;whiteSpace=wrap;html=1;fontSize=12;" parent="JR3lvSD2bUoOzHBzQH5V-7" vertex="1">
                    <mxGeometry x="-10" y="200" width="120" height="20" as="geometry"/>
                </mxCell>
                <mxCell id="R2JvyijKHk7ScQOrKC0J-2" value="&lt;div style=&quot;text-align: center;&quot;&gt;&lt;span style=&quot;background-color: rgb(24, 20, 29);&quot;&gt;SendFeedbackForm()&lt;/span&gt;&lt;/div&gt;" style="text;whiteSpace=wrap;html=1;fontSize=12;" parent="JR3lvSD2bUoOzHBzQH5V-7" vertex="1">
                    <mxGeometry x="-10" y="240" width="120" height="20" as="geometry"/>
                </mxCell>
                <mxCell id="NgKhhbQ6Dh_ki_Y8MJoj-1" value="&lt;font color=&quot;#000000&quot; style=&quot;font-size: 9px;&quot;&gt;Exception Path&lt;/font&gt;" style="shape=umlFrame;whiteSpace=wrap;html=1;width=80;height=20;boundedLbl=1;verticalAlign=middle;align=left;spacingLeft=5;strokeWidth=1;fontSize=9;fillColor=#f8cecc;strokeColor=#b85450;" parent="JR3lvSD2bUoOzHBzQH5V-7" vertex="1">
                    <mxGeometry x="-130" y="380" width="223.72" height="53" as="geometry"/>
                </mxCell>
                <mxCell id="JR3lvSD2bUoOzHBzQH5V-9" value="&amp;lt;&amp;lt;Control&amp;gt;&amp;gt;&lt;br&gt;FeedbackController" style="shape=umlLifeline;perimeter=lifelinePerimeter;whiteSpace=wrap;html=1;container=1;collapsible=0;recursiveResize=0;outlineConnect=0;" parent="1" vertex="1">
                    <mxGeometry x="380" y="80" width="110" height="840" as="geometry"/>
                </mxCell>
                <mxCell id="JR3lvSD2bUoOzHBzQH5V-10" value="" style="html=1;points=[];perimeter=orthogonalPerimeter;" parent="JR3lvSD2bUoOzHBzQH5V-9" vertex="1">
                    <mxGeometry x="50" y="95" width="10" height="365" as="geometry"/>
                </mxCell>
                <mxCell id="5kIUOo06UmIpFsdH0rGB-6" value="" style="html=1;points=[];perimeter=orthogonalPerimeter;" parent="JR3lvSD2bUoOzHBzQH5V-9" vertex="1">
                    <mxGeometry x="50" y="480" width="10" height="180" as="geometry"/>
                </mxCell>
                <mxCell id="JR3lvSD2bUoOzHBzQH5V-11" value="&amp;lt;&amp;lt;Boundary&amp;gt;&amp;gt;&lt;br&gt;OrderListener" style="shape=umlLifeline;perimeter=lifelinePerimeter;whiteSpace=wrap;html=1;container=1;collapsible=0;recursiveResize=0;outlineConnect=0;" parent="1" vertex="1">
                    <mxGeometry x="200" y="80" width="100" height="840" as="geometry"/>
                </mxCell>
                <mxCell id="JR3lvSD2bUoOzHBzQH5V-12" value="" style="html=1;points=[];perimeter=orthogonalPerimeter;" parent="JR3lvSD2bUoOzHBzQH5V-11" vertex="1">
                    <mxGeometry x="45" y="95" width="10" height="50" as="geometry"/>
                </mxCell>
                <mxCell id="JR3lvSD2bUoOzHBzQH5V-13" value="&amp;lt;&amp;lt;Entity&amp;gt;&amp;gt;&lt;br&gt;Feedback" style="shape=umlLifeline;perimeter=lifelinePerimeter;whiteSpace=wrap;html=1;container=1;collapsible=0;recursiveResize=0;outlineConnect=0;" parent="1" vertex="1">
                    <mxGeometry x="1090" y="80" width="100" height="840" as="geometry"/>
                </mxCell>
                <mxCell id="ImeykOzW7Dzun4YUdv9i-10" value="" style="html=1;points=[];perimeter=orthogonalPerimeter;" parent="JR3lvSD2bUoOzHBzQH5V-13" vertex="1">
                    <mxGeometry x="45" y="410" width="10" height="60" as="geometry"/>
                </mxCell>
                <mxCell id="5kIUOo06UmIpFsdH0rGB-4" value="" style="html=1;points=[];perimeter=orthogonalPerimeter;" parent="JR3lvSD2bUoOzHBzQH5V-13" vertex="1">
                    <mxGeometry x="45" y="520" width="10" height="80" as="geometry"/>
                </mxCell>
                <mxCell id="JR3lvSD2bUoOzHBzQH5V-14" value="&amp;lt;&amp;lt;Entity&amp;gt;&amp;gt;&lt;br&gt;FeedbackForm" style="shape=umlLifeline;perimeter=lifelinePerimeter;whiteSpace=wrap;html=1;container=1;collapsible=0;recursiveResize=0;outlineConnect=0;" parent="1" vertex="1">
                    <mxGeometry x="720" y="80" width="100" height="840" as="geometry"/>
                </mxCell>
                <mxCell id="QVWIZu_C3PdvrbzYzEDc-1" value="" style="html=1;points=[];perimeter=orthogonalPerimeter;" parent="JR3lvSD2bUoOzHBzQH5V-14" vertex="1">
                    <mxGeometry x="45" y="210" width="10" height="50" as="geometry"/>
                </mxCell>
                <mxCell id="Bveo8Vso_6XRpk1jzpCJ-1" value="&lt;div style=&quot;text-align: center;&quot;&gt;&lt;span style=&quot;background-color: rgb(24, 20, 29);&quot;&gt;SendFeedback()&lt;/span&gt;&lt;/div&gt;" style="text;whiteSpace=wrap;html=1;fontSize=12;" parent="JR3lvSD2bUoOzHBzQH5V-14" vertex="1">
                    <mxGeometry x="-20" y="365" width="120" height="20" as="geometry"/>
                </mxCell>
                <mxCell id="lSSIxCcbl4IjQz590V4J-4" style="edgeStyle=none;html=1;fontSize=12;" parent="1" source="JR3lvSD2bUoOzHBzQH5V-2" target="JR3lvSD2bUoOzHBzQH5V-11" edge="1">
                    <mxGeometry relative="1" as="geometry">
                        <Array as="points">
                            <mxPoint x="180" y="195"/>
                        </Array>
                    </mxGeometry>
                </mxCell>
                <mxCell id="lSSIxCcbl4IjQz590V4J-5" value="SendPackageCompletion()" style="edgeLabel;html=1;align=center;verticalAlign=middle;resizable=0;points=[];fontSize=12;" parent="lSSIxCcbl4IjQz590V4J-4" vertex="1" connectable="0">
                    <mxGeometry x="-0.4981" y="3" relative="1" as="geometry">
                        <mxPoint x="46" y="-12" as="offset"/>
                    </mxGeometry>
                </mxCell>
                <mxCell id="gXX_iel64OGYhfWm3MnG-4" style="edgeStyle=none;html=1;fontSize=12;" parent="1" source="JR3lvSD2bUoOzHBzQH5V-12" target="JR3lvSD2bUoOzHBzQH5V-9" edge="1">
                    <mxGeometry relative="1" as="geometry">
                        <Array as="points">
                            <mxPoint x="270" y="210"/>
                        </Array>
                    </mxGeometry>
                </mxCell>
                <mxCell id="gXX_iel64OGYhfWm3MnG-9" value="SendPackageCompletion()" style="edgeLabel;html=1;align=center;verticalAlign=middle;resizable=0;points=[];fontSize=12;" parent="1" vertex="1" connectable="0">
                    <mxGeometry x="340.0000000000001" y="190" as="geometry">
                        <mxPoint x="8" y="7" as="offset"/>
                    </mxGeometry>
                </mxCell>
                <mxCell id="RKBja1YYO38dAm8brw7R-2" value="&lt;span style=&quot;color: rgb(240, 240, 240); font-family: Helvetica; font-size: 12px; font-style: normal; font-variant-ligatures: normal; font-variant-caps: normal; font-weight: 400; letter-spacing: normal; orphans: 2; text-align: center; text-indent: 0px; text-transform: none; widows: 2; word-spacing: 0px; -webkit-text-stroke-width: 0px; background-color: rgb(24, 20, 29); text-decoration-thickness: initial; text-decoration-style: initial; text-decoration-color: initial; float: none; display: inline !important;&quot;&gt;SendPackageCompletion()&lt;/span&gt;" style="text;whiteSpace=wrap;html=1;fontSize=12;" parent="1" vertex="1">
                    <mxGeometry x="460" y="190" width="150" height="20" as="geometry"/>
                </mxCell>
                <mxCell id="RKBja1YYO38dAm8brw7R-3" style="edgeStyle=none;html=1;entryX=-0.34;entryY=0.225;entryDx=0;entryDy=0;entryPerimeter=0;fontSize=12;" parent="1" source="JR3lvSD2bUoOzHBzQH5V-10" target="JR3lvSD2bUoOzHBzQH5V-8" edge="1">
                    <mxGeometry relative="1" as="geometry"/>
                </mxCell>
                <mxCell id="P7-RKaSqCgGcWS6hQedI-1" style="edgeStyle=none;html=1;fontSize=12;" parent="1" source="JR3lvSD2bUoOzHBzQH5V-8" target="JR3lvSD2bUoOzHBzQH5V-9" edge="1">
                    <mxGeometry relative="1" as="geometry"/>
                </mxCell>
                <mxCell id="P7-RKaSqCgGcWS6hQedI-2" value="&lt;span style=&quot;color: rgb(240, 240, 240); font-family: Helvetica; font-size: 12px; font-style: normal; font-variant-ligatures: normal; font-variant-caps: normal; font-weight: 400; letter-spacing: normal; orphans: 2; text-align: center; text-indent: 0px; text-transform: none; widows: 2; word-spacing: 0px; -webkit-text-stroke-width: 0px; background-color: rgb(24, 20, 29); text-decoration-thickness: initial; text-decoration-style: initial; text-decoration-color: initial; float: none; display: inline !important;&quot;&gt;SendOrderComplete()&lt;/span&gt;" style="text;whiteSpace=wrap;html=1;fontSize=12;" parent="1" vertex="1">
                    <mxGeometry x="475" y="240" width="120" height="20" as="geometry"/>
                </mxCell>
                <mxCell id="dxfa6Q4PMbKHfRvBcv8o-1" style="edgeStyle=none;html=1;fontSize=12;" parent="1" source="JR3lvSD2bUoOzHBzQH5V-10" target="JR3lvSD2bUoOzHBzQH5V-14" edge="1">
                    <mxGeometry relative="1" as="geometry">
                        <mxPoint x="570" y="300" as="targetPoint"/>
                        <Array as="points">
                            <mxPoint x="670" y="300"/>
                            <mxPoint x="710" y="300"/>
                        </Array>
                    </mxGeometry>
                </mxCell>
                <mxCell id="R2JvyijKHk7ScQOrKC0J-1" style="edgeStyle=none;html=1;fontSize=12;" parent="1" source="QVWIZu_C3PdvrbzYzEDc-1" target="JR3lvSD2bUoOzHBzQH5V-9" edge="1">
                    <mxGeometry relative="1" as="geometry">
                        <Array as="points">
                            <mxPoint x="540" y="320"/>
                        </Array>
                    </mxGeometry>
                </mxCell>
                <mxCell id="ImeykOzW7Dzun4YUdv9i-5" value="&lt;div style=&quot;text-align: center;&quot;&gt;&lt;span style=&quot;background-color: rgb(24, 20, 29);&quot;&gt;SendFeedbackForm()&lt;/span&gt;&lt;/div&gt;" style="text;whiteSpace=wrap;html=1;fontSize=12;" parent="1" vertex="1">
                    <mxGeometry x="635" y="340" width="120" height="20" as="geometry"/>
                </mxCell>
                <mxCell id="ImeykOzW7Dzun4YUdv9i-9" value="&lt;div style=&quot;text-align: center;&quot;&gt;&lt;span style=&quot;background-color: rgb(24, 20, 29);&quot;&gt;DoFeedback()&lt;/span&gt;&lt;/div&gt;" style="text;whiteSpace=wrap;html=1;fontSize=12;" parent="1" vertex="1">
                    <mxGeometry x="927.5" y="400" width="85" height="20" as="geometry"/>
                </mxCell>
                <mxCell id="BLh-qXP9bf4LaMo1LjO5-2" value="&amp;lt;&amp;lt;Boundary&amp;gt;&amp;gt;&lt;br&gt;OrderListener" style="shape=umlLifeline;perimeter=lifelinePerimeter;whiteSpace=wrap;html=1;container=1;collapsible=0;recursiveResize=0;outlineConnect=0;" parent="1" vertex="1">
                    <mxGeometry x="850" y="80" width="100" height="840" as="geometry"/>
                </mxCell>
                <mxCell id="BLh-qXP9bf4LaMo1LjO5-3" value="" style="html=1;points=[];perimeter=orthogonalPerimeter;" parent="BLh-qXP9bf4LaMo1LjO5-2" vertex="1">
                    <mxGeometry x="45" y="280" width="10" height="120" as="geometry"/>
                </mxCell>
                <mxCell id="EcWXg2tVBbbHZ5Ipiy5P-1" value="&lt;div style=&quot;text-align: center;&quot;&gt;&lt;span style=&quot;background-color: rgb(24, 20, 29);&quot;&gt;RequestFeedback()&lt;/span&gt;&lt;/div&gt;" style="text;whiteSpace=wrap;html=1;fontSize=12;" parent="BLh-qXP9bf4LaMo1LjO5-2" vertex="1">
                    <mxGeometry x="-70" y="515" width="85" height="20" as="geometry"/>
                </mxCell>
                <mxCell id="5kIUOo06UmIpFsdH0rGB-9" value="&lt;div style=&quot;text-align: center;&quot;&gt;&lt;span style=&quot;background-color: rgb(24, 20, 29);&quot;&gt;RequestFeedback()&lt;/span&gt;&lt;/div&gt;" style="text;whiteSpace=wrap;html=1;fontSize=12;" parent="BLh-qXP9bf4LaMo1LjO5-2" vertex="1">
                    <mxGeometry x="-30" y="490" width="85" height="20" as="geometry"/>
                </mxCell>
                <mxCell id="BLh-qXP9bf4LaMo1LjO5-6" style="edgeStyle=none;html=1;fontSize=12;" parent="1" source="JR3lvSD2bUoOzHBzQH5V-10" target="BLh-qXP9bf4LaMo1LjO5-2" edge="1">
                    <mxGeometry relative="1" as="geometry">
                        <mxPoint x="570" y="370" as="targetPoint"/>
                        <Array as="points">
                            <mxPoint x="800" y="370"/>
                        </Array>
                    </mxGeometry>
                </mxCell>
                <mxCell id="BLh-qXP9bf4LaMo1LjO5-8" value="&lt;div style=&quot;text-align: center;&quot;&gt;&lt;span style=&quot;background-color: rgb(24, 20, 29);&quot;&gt;SendFeedbackForm()&lt;/span&gt;&lt;/div&gt;" style="text;whiteSpace=wrap;html=1;fontSize=12;" parent="1" vertex="1">
                    <mxGeometry x="910" y="350" width="120" height="20" as="geometry"/>
                </mxCell>
                <mxCell id="BLh-qXP9bf4LaMo1LjO5-9" style="edgeStyle=none;html=1;fontSize=12;" parent="1" source="ImeykOzW7Dzun4YUdv9i-1" target="BLh-qXP9bf4LaMo1LjO5-2" edge="1">
                    <mxGeometry relative="1" as="geometry"/>
                </mxCell>
                <mxCell id="KiDnudGPL0NOoKvEt_Mk-3" style="edgeStyle=none;html=1;entryX=0.1;entryY=0.314;entryDx=0;entryDy=0;entryPerimeter=0;fontSize=12;" parent="1" source="BLh-qXP9bf4LaMo1LjO5-3" target="ImeykOzW7Dzun4YUdv9i-1" edge="1">
                    <mxGeometry relative="1" as="geometry"/>
                </mxCell>
                <mxCell id="8VmuSWRICIiyt3su2t_o-1" style="edgeStyle=none;html=1;fontSize=12;" parent="1" source="BLh-qXP9bf4LaMo1LjO5-3" target="JR3lvSD2bUoOzHBzQH5V-9" edge="1">
                    <mxGeometry relative="1" as="geometry">
                        <Array as="points">
                            <mxPoint x="870" y="410"/>
                        </Array>
                    </mxGeometry>
                </mxCell>
                <mxCell id="GzaeV2xVy56N7ZlGbq8Z-1" value="&lt;div style=&quot;text-align: center;&quot;&gt;&lt;span style=&quot;background-color: rgb(24, 20, 29);&quot;&gt;SendFeedback()&lt;/span&gt;&lt;/div&gt;" style="text;whiteSpace=wrap;html=1;fontSize=12;" parent="1" vertex="1">
                    <mxGeometry x="640" y="410" width="120" height="20" as="geometry"/>
                </mxCell>
                <mxCell id="7q72P03CL6U-sUQO8gqL-3" style="edgeStyle=none;html=1;fontSize=12;" parent="1" source="JR3lvSD2bUoOzHBzQH5V-10" target="JR3lvSD2bUoOzHBzQH5V-13" edge="1">
                    <mxGeometry relative="1" as="geometry">
                        <Array as="points">
                            <mxPoint x="740" y="520"/>
                            <mxPoint x="1110" y="520"/>
                        </Array>
                    </mxGeometry>
                </mxCell>
                <mxCell id="iYRaFVOrKt-42Oc4v2Bj-1" value="&lt;div style=&quot;text-align: center;&quot;&gt;&lt;span style=&quot;background-color: rgb(24, 20, 29);&quot;&gt;SendFeedback()&lt;/span&gt;&lt;/div&gt;" style="text;whiteSpace=wrap;html=1;fontSize=12;" parent="1" vertex="1">
                    <mxGeometry x="780" y="490" width="120" height="20" as="geometry"/>
                </mxCell>
                <mxCell id="7q72P03CL6U-sUQO8gqL-4" value="&lt;font style=&quot;font-size: 11px;&quot;&gt;&amp;lt;&amp;lt;Boundary&amp;gt;&amp;gt;&lt;br&gt;Feedback View page&lt;/font&gt;" style="shape=umlLifeline;perimeter=lifelinePerimeter;whiteSpace=wrap;html=1;container=1;collapsible=0;recursiveResize=0;outlineConnect=0;" parent="1" vertex="1">
                    <mxGeometry x="1240" y="80" width="100" height="840" as="geometry"/>
                </mxCell>
                <mxCell id="7q72P03CL6U-sUQO8gqL-5" value="" style="html=1;points=[];perimeter=orthogonalPerimeter;" parent="7q72P03CL6U-sUQO8gqL-4" vertex="1">
                    <mxGeometry x="45" y="430" width="10" height="230" as="geometry"/>
                </mxCell>
                <mxCell id="Bveo8Vso_6XRpk1jzpCJ-6" style="edgeStyle=none;html=1;entryX=1.164;entryY=0.134;entryDx=0;entryDy=0;entryPerimeter=0;fontSize=12;" parent="1" source="Bveo8Vso_6XRpk1jzpCJ-3" target="7q72P03CL6U-sUQO8gqL-5" edge="1">
                    <mxGeometry relative="1" as="geometry"/>
                </mxCell>
                <mxCell id="Bveo8Vso_6XRpk1jzpCJ-7" value="&lt;div style=&quot;text-align: center;&quot;&gt;&lt;span style=&quot;background-color: rgb(24, 20, 29);&quot;&gt;RequestFeedback()&lt;/span&gt;&lt;/div&gt;" style="text;whiteSpace=wrap;html=1;fontSize=12;" parent="1" vertex="1">
                    <mxGeometry x="1330" y="540" width="85" height="20" as="geometry"/>
                </mxCell>
                <mxCell id="5kIUOo06UmIpFsdH0rGB-2" style="edgeStyle=none;html=1;fontSize=12;dashed=1;" parent="1" source="BLh-qXP9bf4LaMo1LjO5-3" target="JR3lvSD2bUoOzHBzQH5V-10" edge="1">
                    <mxGeometry relative="1" as="geometry">
                        <Array as="points">
                            <mxPoint x="540" y="450"/>
                        </Array>
                    </mxGeometry>
                </mxCell>
                <mxCell id="5kIUOo06UmIpFsdH0rGB-7" style="edgeStyle=none;html=1;fontSize=12;" parent="1" source="7q72P03CL6U-sUQO8gqL-5" target="JR3lvSD2bUoOzHBzQH5V-9" edge="1">
                    <mxGeometry relative="1" as="geometry">
                        <Array as="points">
                            <mxPoint x="1240" y="570"/>
                            <mxPoint x="450" y="570"/>
                        </Array>
                    </mxGeometry>
                </mxCell>
                <mxCell id="5kIUOo06UmIpFsdH0rGB-8" style="edgeStyle=none;html=1;entryX=-0.282;entryY=0.335;entryDx=0;entryDy=0;entryPerimeter=0;fontSize=12;" parent="1" source="5kIUOo06UmIpFsdH0rGB-6" target="5kIUOo06UmIpFsdH0rGB-4" edge="1">
                    <mxGeometry relative="1" as="geometry"/>
                </mxCell>
                <mxCell id="EcWXg2tVBbbHZ5Ipiy5P-4" style="edgeStyle=none;html=1;fontSize=12;" parent="1" source="5kIUOo06UmIpFsdH0rGB-4" target="JR3lvSD2bUoOzHBzQH5V-9" edge="1">
                    <mxGeometry relative="1" as="geometry"/>
                </mxCell>
                <mxCell id="g8MFj6wl-DSOnfw2L7JR-1" value="&lt;div style=&quot;text-align: center;&quot;&gt;&lt;span style=&quot;background-color: rgb(24, 20, 29);&quot;&gt;ReturnFeedback()&lt;/span&gt;&lt;/div&gt;" style="text;whiteSpace=wrap;html=1;fontSize=12;" parent="1" vertex="1">
                    <mxGeometry x="790" y="640" width="85" height="20" as="geometry"/>
                </mxCell>
                <mxCell id="g8MFj6wl-DSOnfw2L7JR-4" style="edgeStyle=none;html=1;entryX=0.5;entryY=0.652;entryDx=0;entryDy=0;entryPerimeter=0;fontSize=12;" parent="1" source="5kIUOo06UmIpFsdH0rGB-4" target="7q72P03CL6U-sUQO8gqL-5" edge="1">
                    <mxGeometry relative="1" as="geometry"/>
                </mxCell>
                <mxCell id="g8MFj6wl-DSOnfw2L7JR-5" value="&lt;div style=&quot;text-align: center;&quot;&gt;&lt;span style=&quot;background-color: rgb(24, 20, 29);&quot;&gt;ReturnFeedback()&lt;/span&gt;&lt;/div&gt;" style="text;whiteSpace=wrap;html=1;fontSize=12;" parent="1" vertex="1">
                    <mxGeometry x="1170" y="630" width="85" height="20" as="geometry"/>
                </mxCell>
                <mxCell id="KdnIqen4m-JgUrq0kbRF-1" style="edgeStyle=none;html=1;entryX=-0.047;entryY=0.746;entryDx=0;entryDy=0;entryPerimeter=0;fontSize=12;" parent="1" source="7q72P03CL6U-sUQO8gqL-5" target="Bveo8Vso_6XRpk1jzpCJ-3" edge="1">
                    <mxGeometry relative="1" as="geometry"/>
                </mxCell>
                <mxCell id="KdnIqen4m-JgUrq0kbRF-2" value="&lt;div style=&quot;text-align: center;&quot;&gt;&lt;span style=&quot;background-color: rgb(24, 20, 29);&quot;&gt;ReturnFeedback()&lt;/span&gt;&lt;/div&gt;" style="text;whiteSpace=wrap;html=1;fontSize=12;" parent="1" vertex="1">
                    <mxGeometry x="1330" y="650" width="85" height="20" as="geometry"/>
                </mxCell>
                <mxCell id="NgKhhbQ6Dh_ki_Y8MJoj-3" value="&lt;div style=&quot;text-align: center;&quot;&gt;&lt;span style=&quot;background-color: rgb(24, 20, 29);&quot;&gt;Stop getting feedback after user didn't do feedback for a certain time&lt;/span&gt;&lt;/div&gt;" style="text;whiteSpace=wrap;html=1;fontSize=12;" parent="1" vertex="1">
                    <mxGeometry x="450" y="476.5" width="200" height="20" as="geometry"/>
                </mxCell>
                <mxCell id="5_xZ4QFbFlikdJKPfQJz-4" value="FeedbackController" style="swimlane;fontStyle=1;align=center;verticalAlign=top;childLayout=stackLayout;horizontal=1;startSize=26;horizontalStack=0;resizeParent=1;resizeParentMax=0;resizeLast=0;collapsible=1;marginBottom=0;" vertex="1" parent="1">
                    <mxGeometry x="-780" y="660" width="160" height="164" as="geometry"/>
                </mxCell>
                <mxCell id="5_xZ4QFbFlikdJKPfQJz-5" value="" style="line;strokeWidth=1;fillColor=none;align=left;verticalAlign=middle;spacingTop=-1;spacingLeft=3;spacingRight=3;rotatable=0;labelPosition=right;points=[];portConstraint=eastwest;strokeColor=inherit;" vertex="1" parent="5_xZ4QFbFlikdJKPfQJz-4">
                    <mxGeometry y="26" width="160" height="8" as="geometry"/>
                </mxCell>
                <mxCell id="5_xZ4QFbFlikdJKPfQJz-6" value="SendPackageCompletion()" style="text;strokeColor=none;fillColor=none;align=left;verticalAlign=top;spacingLeft=4;spacingRight=4;overflow=hidden;rotatable=0;points=[[0,0.5],[1,0.5]];portConstraint=eastwest;" vertex="1" parent="5_xZ4QFbFlikdJKPfQJz-4">
                    <mxGeometry y="34" width="160" height="26" as="geometry"/>
                </mxCell>
                <mxCell id="5_xZ4QFbFlikdJKPfQJz-7" value="SendFeedback()" style="text;strokeColor=none;fillColor=none;align=left;verticalAlign=top;spacingLeft=4;spacingRight=4;overflow=hidden;rotatable=0;points=[[0,0.5],[1,0.5]];portConstraint=eastwest;" vertex="1" parent="5_xZ4QFbFlikdJKPfQJz-4">
                    <mxGeometry y="60" width="160" height="26" as="geometry"/>
                </mxCell>
                <mxCell id="5_xZ4QFbFlikdJKPfQJz-8" value="GetFeedbackForm()" style="text;strokeColor=none;fillColor=none;align=left;verticalAlign=top;spacingLeft=4;spacingRight=4;overflow=hidden;rotatable=0;points=[[0,0.5],[1,0.5]];portConstraint=eastwest;" vertex="1" parent="5_xZ4QFbFlikdJKPfQJz-4">
                    <mxGeometry y="86" width="160" height="26" as="geometry"/>
                </mxCell>
                <mxCell id="X0TVPimXRAWHoc71iC0L-2" value="RequestFeedback()" style="text;strokeColor=none;fillColor=none;align=left;verticalAlign=top;spacingLeft=4;spacingRight=4;overflow=hidden;rotatable=0;points=[[0,0.5],[1,0.5]];portConstraint=eastwest;" vertex="1" parent="5_xZ4QFbFlikdJKPfQJz-4">
                    <mxGeometry y="112" width="160" height="26" as="geometry"/>
                </mxCell>
                <mxCell id="X0TVPimXRAWHoc71iC0L-1" value="SendFeedbackForm()" style="text;strokeColor=none;fillColor=none;align=left;verticalAlign=top;spacingLeft=4;spacingRight=4;overflow=hidden;rotatable=0;points=[[0,0.5],[1,0.5]];portConstraint=eastwest;" vertex="1" parent="5_xZ4QFbFlikdJKPfQJz-4">
                    <mxGeometry y="138" width="160" height="26" as="geometry"/>
                </mxCell>
                <mxCell id="X0TVPimXRAWHoc71iC0L-24" value="FeedbackController" style="swimlane;fontStyle=1;align=center;verticalAlign=top;childLayout=stackLayout;horizontal=1;startSize=26;horizontalStack=0;resizeParent=1;resizeParentMax=0;resizeLast=0;collapsible=1;marginBottom=0;" vertex="1" parent="1">
                    <mxGeometry x="-290" y="430" width="160" height="164" as="geometry"/>
                </mxCell>
                <mxCell id="X0TVPimXRAWHoc71iC0L-25" value="" style="line;strokeWidth=1;fillColor=none;align=left;verticalAlign=middle;spacingTop=-1;spacingLeft=3;spacingRight=3;rotatable=0;labelPosition=right;points=[];portConstraint=eastwest;strokeColor=inherit;" vertex="1" parent="X0TVPimXRAWHoc71iC0L-24">
                    <mxGeometry y="26" width="160" height="8" as="geometry"/>
                </mxCell>
                <mxCell id="X0TVPimXRAWHoc71iC0L-26" value="SendPackageCompletion()" style="text;strokeColor=none;fillColor=none;align=left;verticalAlign=top;spacingLeft=4;spacingRight=4;overflow=hidden;rotatable=0;points=[[0,0.5],[1,0.5]];portConstraint=eastwest;" vertex="1" parent="X0TVPimXRAWHoc71iC0L-24">
                    <mxGeometry y="34" width="160" height="26" as="geometry"/>
                </mxCell>
                <mxCell id="X0TVPimXRAWHoc71iC0L-27" value="SendFeedback()" style="text;strokeColor=none;fillColor=none;align=left;verticalAlign=top;spacingLeft=4;spacingRight=4;overflow=hidden;rotatable=0;points=[[0,0.5],[1,0.5]];portConstraint=eastwest;" vertex="1" parent="X0TVPimXRAWHoc71iC0L-24">
                    <mxGeometry y="60" width="160" height="26" as="geometry"/>
                </mxCell>
                <mxCell id="X0TVPimXRAWHoc71iC0L-28" value="GetFeedbackForm()" style="text;strokeColor=none;fillColor=none;align=left;verticalAlign=top;spacingLeft=4;spacingRight=4;overflow=hidden;rotatable=0;points=[[0,0.5],[1,0.5]];portConstraint=eastwest;" vertex="1" parent="X0TVPimXRAWHoc71iC0L-24">
                    <mxGeometry y="86" width="160" height="26" as="geometry"/>
                </mxCell>
                <mxCell id="X0TVPimXRAWHoc71iC0L-29" value="RequestFeedback()" style="text;strokeColor=none;fillColor=none;align=left;verticalAlign=top;spacingLeft=4;spacingRight=4;overflow=hidden;rotatable=0;points=[[0,0.5],[1,0.5]];portConstraint=eastwest;" vertex="1" parent="X0TVPimXRAWHoc71iC0L-24">
                    <mxGeometry y="112" width="160" height="26" as="geometry"/>
                </mxCell>
                <mxCell id="X0TVPimXRAWHoc71iC0L-30" value="SendFeedbackForm()" style="text;strokeColor=none;fillColor=none;align=left;verticalAlign=top;spacingLeft=4;spacingRight=4;overflow=hidden;rotatable=0;points=[[0,0.5],[1,0.5]];portConstraint=eastwest;" vertex="1" parent="X0TVPimXRAWHoc71iC0L-24">
                    <mxGeometry y="138" width="160" height="26" as="geometry"/>
                </mxCell>
                <mxCell id="X0TVPimXRAWHoc71iC0L-61" value="" style="endArrow=none;html=1;edgeStyle=orthogonalEdgeStyle;" edge="1" parent="1" source="X0TVPimXRAWHoc71iC0L-65" target="X0TVPimXRAWHoc71iC0L-24">
                    <mxGeometry width="50" height="50" relative="1" as="geometry">
                        <mxPoint x="-260" y="230" as="sourcePoint"/>
                        <mxPoint x="-210" y="180" as="targetPoint"/>
                    </mxGeometry>
                </mxCell>
                <mxCell id="X0TVPimXRAWHoc71iC0L-60" value="" style="endArrow=none;html=1;edgeStyle=orthogonalEdgeStyle;" edge="1" parent="1" source="X0TVPimXRAWHoc71iC0L-101" target="X0TVPimXRAWHoc71iC0L-24">
                    <mxGeometry width="50" height="50" relative="1" as="geometry">
                        <mxPoint x="-90" y="760" as="sourcePoint"/>
                        <mxPoint x="-80" y="440" as="targetPoint"/>
                    </mxGeometry>
                </mxCell>
                <mxCell id="X0TVPimXRAWHoc71iC0L-56" value="" style="endArrow=none;html=1;edgeStyle=orthogonalEdgeStyle;" edge="1" parent="1" source="X0TVPimXRAWHoc71iC0L-74" target="X0TVPimXRAWHoc71iC0L-24">
                    <mxGeometry width="50" height="50" relative="1" as="geometry">
                        <mxPoint x="-360" y="300.0000000000002" as="sourcePoint"/>
                        <mxPoint x="-80" y="440" as="targetPoint"/>
                    </mxGeometry>
                </mxCell>
                <mxCell id="X0TVPimXRAWHoc71iC0L-54" value="" style="endArrow=none;html=1;edgeStyle=orthogonalEdgeStyle;" edge="1" parent="1" source="X0TVPimXRAWHoc71iC0L-92" target="X0TVPimXRAWHoc71iC0L-24">
                    <mxGeometry width="50" height="50" relative="1" as="geometry">
                        <mxPoint x="-360" y="473" as="sourcePoint"/>
                        <mxPoint x="-160" y="540.04" as="targetPoint"/>
                        <Array as="points">
                            <mxPoint x="-290" y="540"/>
                            <mxPoint x="-290" y="540"/>
                        </Array>
                    </mxGeometry>
                </mxCell>
                <mxCell id="X0TVPimXRAWHoc71iC0L-53" value="" style="endArrow=none;html=1;edgeStyle=orthogonalEdgeStyle;" edge="1" parent="1" source="X0TVPimXRAWHoc71iC0L-69" target="X0TVPimXRAWHoc71iC0L-24">
                    <mxGeometry width="50" height="50" relative="1" as="geometry">
                        <mxPoint x="-360" y="300" as="sourcePoint"/>
                        <mxPoint x="-80" y="440" as="targetPoint"/>
                    </mxGeometry>
                </mxCell>
                <mxCell id="X0TVPimXRAWHoc71iC0L-65" value="&lt;span style=&quot;font-family: Helvetica; font-size: 12px; font-style: normal; font-variant-ligatures: normal; font-variant-caps: normal; font-weight: 400; letter-spacing: normal; orphans: 2; text-align: center; text-indent: 0px; text-transform: none; widows: 2; word-spacing: 0px; -webkit-text-stroke-width: 0px; text-decoration-thickness: initial; text-decoration-style: initial; text-decoration-color: initial; float: none; display: inline !important;&quot;&gt;&amp;lt;&amp;lt;Entity&amp;gt;&amp;gt;&lt;/span&gt;&lt;br style=&quot;border-color: rgb(0, 0, 0); font-family: Helvetica; font-size: 12px; font-style: normal; font-variant-ligatures: normal; font-variant-caps: normal; font-weight: 400; letter-spacing: normal; orphans: 2; text-align: center; text-indent: 0px; text-transform: none; widows: 2; word-spacing: 0px; -webkit-text-stroke-width: 0px; text-decoration-thickness: initial; text-decoration-style: initial; text-decoration-color: initial;&quot;&gt;&lt;u&gt;Feedback&lt;/u&gt;" style="swimlane;fontStyle=0;align=center;verticalAlign=top;childLayout=stackLayout;horizontal=1;startSize=40;horizontalStack=0;resizeParent=1;resizeParentMax=0;resizeLast=0;collapsible=0;marginBottom=0;html=1;" vertex="1" parent="1">
                    <mxGeometry x="-480" y="166" width="140" height="74" as="geometry"/>
                </mxCell>
                <mxCell id="X0TVPimXRAWHoc71iC0L-66" value="" style="line;strokeWidth=1;fillColor=none;align=left;verticalAlign=middle;spacingTop=-1;spacingLeft=3;spacingRight=3;rotatable=0;labelPosition=right;points=[];portConstraint=eastwest;" vertex="1" parent="X0TVPimXRAWHoc71iC0L-65">
                    <mxGeometry y="40" width="140" height="8" as="geometry"/>
                </mxCell>
                <mxCell id="X0TVPimXRAWHoc71iC0L-67" value="ReturnFeedback()" style="text;strokeColor=none;fillColor=none;align=left;verticalAlign=top;spacingLeft=4;spacingRight=4;overflow=hidden;rotatable=0;points=[[0,0.5],[1,0.5]];portConstraint=eastwest;strokeWidth=0;fontFamily=Tahoma;fontSize=10;" vertex="1" parent="X0TVPimXRAWHoc71iC0L-65">
                    <mxGeometry y="48" width="140" height="26" as="geometry"/>
                </mxCell>
                <mxCell id="X0TVPimXRAWHoc71iC0L-69" value="&lt;span style=&quot;font-family: Helvetica; font-size: 12px; font-style: normal; font-variant-ligatures: normal; font-variant-caps: normal; font-weight: 400; letter-spacing: normal; orphans: 2; text-align: center; text-indent: 0px; text-transform: none; widows: 2; word-spacing: 0px; -webkit-text-stroke-width: 0px; text-decoration-thickness: initial; text-decoration-style: initial; text-decoration-color: initial; float: none; display: inline !important;&quot;&gt;&amp;lt;&amp;lt;Boundary&amp;gt;&amp;gt;&lt;/span&gt;&lt;br style=&quot;border-color: rgb(0, 0, 0); font-family: Helvetica; font-size: 12px; font-style: normal; font-variant-ligatures: normal; font-variant-caps: normal; font-weight: 400; letter-spacing: normal; orphans: 2; text-align: center; text-indent: 0px; text-transform: none; widows: 2; word-spacing: 0px; -webkit-text-stroke-width: 0px; text-decoration-thickness: initial; text-decoration-style: initial; text-decoration-color: initial;&quot;&gt;&lt;u&gt;FeedbackForm&lt;/u&gt;" style="swimlane;fontStyle=0;align=center;verticalAlign=top;childLayout=stackLayout;horizontal=1;startSize=40;horizontalStack=0;resizeParent=1;resizeParentMax=0;resizeLast=0;collapsible=0;marginBottom=0;html=1;" vertex="1" parent="1">
                    <mxGeometry x="-480" y="50" width="140" height="100" as="geometry"/>
                </mxCell>
                <mxCell id="X0TVPimXRAWHoc71iC0L-70" value="" style="line;strokeWidth=1;fillColor=none;align=left;verticalAlign=middle;spacingTop=-1;spacingLeft=3;spacingRight=3;rotatable=0;labelPosition=right;points=[];portConstraint=eastwest;" vertex="1" parent="X0TVPimXRAWHoc71iC0L-69">
                    <mxGeometry y="40" width="140" height="8" as="geometry"/>
                </mxCell>
                <mxCell id="X0TVPimXRAWHoc71iC0L-72" value="SendFeedbackForm()" style="text;strokeColor=none;fillColor=none;align=left;verticalAlign=top;spacingLeft=4;spacingRight=4;overflow=hidden;rotatable=0;points=[[0,0.5],[1,0.5]];portConstraint=eastwest;" vertex="1" parent="X0TVPimXRAWHoc71iC0L-69">
                    <mxGeometry y="48" width="140" height="26" as="geometry"/>
                </mxCell>
                <mxCell id="X0TVPimXRAWHoc71iC0L-73" value="SendFeedbackForm()" style="text;strokeColor=none;fillColor=none;align=left;verticalAlign=top;spacingLeft=4;spacingRight=4;overflow=hidden;rotatable=0;points=[[0,0.5],[1,0.5]];portConstraint=eastwest;" vertex="1" parent="X0TVPimXRAWHoc71iC0L-69">
                    <mxGeometry y="74" width="140" height="26" as="geometry"/>
                </mxCell>
                <mxCell id="X0TVPimXRAWHoc71iC0L-74" value="&lt;span style=&quot;font-family: Helvetica; font-size: 12px; font-style: normal; font-variant-ligatures: normal; font-variant-caps: normal; font-weight: 400; letter-spacing: normal; orphans: 2; text-align: center; text-indent: 0px; text-transform: none; widows: 2; word-spacing: 0px; -webkit-text-stroke-width: 0px; text-decoration-thickness: initial; text-decoration-style: initial; text-decoration-color: initial; float: none; display: inline !important;&quot;&gt;&amp;lt;&amp;lt;Entity&amp;gt;&amp;gt;&lt;/span&gt;&lt;br style=&quot;border-color: rgb(0, 0, 0); font-family: Helvetica; font-size: 12px; font-style: normal; font-variant-ligatures: normal; font-variant-caps: normal; font-weight: 400; letter-spacing: normal; orphans: 2; text-align: center; text-indent: 0px; text-transform: none; widows: 2; word-spacing: 0px; -webkit-text-stroke-width: 0px; text-decoration-thickness: initial; text-decoration-style: initial; text-decoration-color: initial;&quot;&gt;&lt;u&gt;Orders&lt;/u&gt;" style="swimlane;fontStyle=0;align=center;verticalAlign=top;childLayout=stackLayout;horizontal=1;startSize=40;horizontalStack=0;resizeParent=1;resizeParentMax=0;resizeLast=0;collapsible=0;marginBottom=0;html=1;" vertex="1" parent="1">
                    <mxGeometry x="-480" y="256" width="140" height="74" as="geometry"/>
                </mxCell>
                <mxCell id="X0TVPimXRAWHoc71iC0L-75" value="" style="line;strokeWidth=1;fillColor=none;align=left;verticalAlign=middle;spacingTop=-1;spacingLeft=3;spacingRight=3;rotatable=0;labelPosition=right;points=[];portConstraint=eastwest;" vertex="1" parent="X0TVPimXRAWHoc71iC0L-74">
                    <mxGeometry y="40" width="140" height="8" as="geometry"/>
                </mxCell>
                <mxCell id="X0TVPimXRAWHoc71iC0L-76" value="SendOrderComplete()" style="text;strokeColor=none;fillColor=none;align=left;verticalAlign=top;spacingLeft=4;spacingRight=4;overflow=hidden;rotatable=0;points=[[0,0.5],[1,0.5]];portConstraint=eastwest;strokeWidth=0;fontFamily=Tahoma;fontSize=10;" vertex="1" parent="X0TVPimXRAWHoc71iC0L-74">
                    <mxGeometry y="48" width="140" height="26" as="geometry"/>
                </mxCell>
                <mxCell id="X0TVPimXRAWHoc71iC0L-77" value="&lt;span style=&quot;font-family: Helvetica; font-size: 12px; font-style: normal; font-variant-ligatures: normal; font-variant-caps: normal; font-weight: 400; letter-spacing: normal; orphans: 2; text-align: center; text-indent: 0px; text-transform: none; widows: 2; word-spacing: 0px; -webkit-text-stroke-width: 0px; text-decoration-thickness: initial; text-decoration-style: initial; text-decoration-color: initial; float: none; display: inline !important;&quot;&gt;&amp;lt;&amp;lt;Boundary&amp;gt;&amp;gt;&lt;/span&gt;&lt;br style=&quot;border-color: rgb(0, 0, 0); font-family: Helvetica; font-size: 12px; font-style: normal; font-variant-ligatures: normal; font-variant-caps: normal; font-weight: 400; letter-spacing: normal; orphans: 2; text-align: center; text-indent: 0px; text-transform: none; widows: 2; word-spacing: 0px; -webkit-text-stroke-width: 0px; text-decoration-thickness: initial; text-decoration-style: initial; text-decoration-color: initial;&quot;&gt;&lt;u&gt;FeedbackViewPage&lt;/u&gt;" style="swimlane;fontStyle=0;align=center;verticalAlign=top;childLayout=stackLayout;horizontal=1;startSize=40;horizontalStack=0;resizeParent=1;resizeParentMax=0;resizeLast=0;collapsible=0;marginBottom=0;html=1;" vertex="1" parent="1">
                    <mxGeometry x="-480" y="350" width="140" height="100" as="geometry"/>
                </mxCell>
                <mxCell id="X0TVPimXRAWHoc71iC0L-78" value="" style="line;strokeWidth=1;fillColor=none;align=left;verticalAlign=middle;spacingTop=-1;spacingLeft=3;spacingRight=3;rotatable=0;labelPosition=right;points=[];portConstraint=eastwest;" vertex="1" parent="X0TVPimXRAWHoc71iC0L-77">
                    <mxGeometry y="40" width="140" height="8" as="geometry"/>
                </mxCell>
                <mxCell id="X0TVPimXRAWHoc71iC0L-82" value="ReturnFeedback()" style="text;strokeColor=none;fillColor=none;align=left;verticalAlign=top;spacingLeft=4;spacingRight=4;overflow=hidden;rotatable=0;points=[[0,0.5],[1,0.5]];portConstraint=eastwest;" vertex="1" parent="X0TVPimXRAWHoc71iC0L-77">
                    <mxGeometry y="48" width="140" height="26" as="geometry"/>
                </mxCell>
                <mxCell id="X0TVPimXRAWHoc71iC0L-83" value="RequestFeedback()" style="text;strokeColor=none;fillColor=none;align=left;verticalAlign=top;spacingLeft=4;spacingRight=4;overflow=hidden;rotatable=0;points=[[0,0.5],[1,0.5]];portConstraint=eastwest;" vertex="1" parent="X0TVPimXRAWHoc71iC0L-77">
                    <mxGeometry y="74" width="140" height="26" as="geometry"/>
                </mxCell>
                <mxCell id="X0TVPimXRAWHoc71iC0L-84" value="" style="endArrow=none;html=1;edgeStyle=orthogonalEdgeStyle;" edge="1" parent="1" source="X0TVPimXRAWHoc71iC0L-77" target="X0TVPimXRAWHoc71iC0L-24">
                    <mxGeometry width="50" height="50" relative="1" as="geometry">
                        <mxPoint x="-330" y="303" as="sourcePoint"/>
                        <mxPoint x="-80" y="440" as="targetPoint"/>
                        <Array as="points">
                            <mxPoint x="-210" y="400"/>
                        </Array>
                    </mxGeometry>
                </mxCell>
                <mxCell id="X0TVPimXRAWHoc71iC0L-92" value="&lt;span style=&quot;font-family: Helvetica; font-size: 12px; font-style: normal; font-variant-ligatures: normal; font-variant-caps: normal; font-weight: 400; letter-spacing: normal; orphans: 2; text-align: center; text-indent: 0px; text-transform: none; widows: 2; word-spacing: 0px; -webkit-text-stroke-width: 0px; text-decoration-thickness: initial; text-decoration-style: initial; text-decoration-color: initial; float: none; display: inline !important;&quot;&gt;&amp;lt;&amp;lt;Boundary&amp;gt;&amp;gt;&lt;/span&gt;&lt;br style=&quot;border-color: rgb(0, 0, 0); font-family: Helvetica; font-size: 12px; font-style: normal; font-variant-ligatures: normal; font-variant-caps: normal; font-weight: 400; letter-spacing: normal; orphans: 2; text-align: center; text-indent: 0px; text-transform: none; widows: 2; word-spacing: 0px; -webkit-text-stroke-width: 0px; text-decoration-thickness: initial; text-decoration-style: initial; text-decoration-color: initial;&quot;&gt;&lt;u&gt;FeedbackViewPage&lt;/u&gt;" style="swimlane;fontStyle=0;align=center;verticalAlign=top;childLayout=stackLayout;horizontal=1;startSize=40;horizontalStack=0;resizeParent=1;resizeParentMax=0;resizeLast=0;collapsible=0;marginBottom=0;html=1;" vertex="1" parent="1">
                    <mxGeometry x="-480" y="462" width="140" height="178" as="geometry"/>
                </mxCell>
                <mxCell id="X0TVPimXRAWHoc71iC0L-93" value="" style="line;strokeWidth=1;fillColor=none;align=left;verticalAlign=middle;spacingTop=-1;spacingLeft=3;spacingRight=3;rotatable=0;labelPosition=right;points=[];portConstraint=eastwest;" vertex="1" parent="X0TVPimXRAWHoc71iC0L-92">
                    <mxGeometry y="40" width="140" height="8" as="geometry"/>
                </mxCell>
                <mxCell id="X0TVPimXRAWHoc71iC0L-96" value="SendPackageCompletion()" style="text;strokeColor=none;fillColor=none;align=left;verticalAlign=top;spacingLeft=4;spacingRight=4;overflow=hidden;rotatable=0;points=[[0,0.5],[1,0.5]];portConstraint=eastwest;" vertex="1" parent="X0TVPimXRAWHoc71iC0L-92">
                    <mxGeometry y="48" width="140" height="26" as="geometry"/>
                </mxCell>
                <mxCell id="X0TVPimXRAWHoc71iC0L-100" value="SendFeedbackForm()" style="text;strokeColor=none;fillColor=none;align=left;verticalAlign=top;spacingLeft=4;spacingRight=4;overflow=hidden;rotatable=0;points=[[0,0.5],[1,0.5]];portConstraint=eastwest;" vertex="1" parent="X0TVPimXRAWHoc71iC0L-92">
                    <mxGeometry y="74" width="140" height="26" as="geometry"/>
                </mxCell>
                <mxCell id="X0TVPimXRAWHoc71iC0L-99" value="RequestFeedback()" style="text;strokeColor=none;fillColor=none;align=left;verticalAlign=top;spacingLeft=4;spacingRight=4;overflow=hidden;rotatable=0;points=[[0,0.5],[1,0.5]];portConstraint=eastwest;" vertex="1" parent="X0TVPimXRAWHoc71iC0L-92">
                    <mxGeometry y="100" width="140" height="26" as="geometry"/>
                </mxCell>
                <mxCell id="X0TVPimXRAWHoc71iC0L-98" value="GetFeedbackForm()" style="text;strokeColor=none;fillColor=none;align=left;verticalAlign=top;spacingLeft=4;spacingRight=4;overflow=hidden;rotatable=0;points=[[0,0.5],[1,0.5]];portConstraint=eastwest;" vertex="1" parent="X0TVPimXRAWHoc71iC0L-92">
                    <mxGeometry y="126" width="140" height="26" as="geometry"/>
                </mxCell>
                <mxCell id="X0TVPimXRAWHoc71iC0L-97" value="SendFeedback()" style="text;strokeColor=none;fillColor=none;align=left;verticalAlign=top;spacingLeft=4;spacingRight=4;overflow=hidden;rotatable=0;points=[[0,0.5],[1,0.5]];portConstraint=eastwest;" vertex="1" parent="X0TVPimXRAWHoc71iC0L-92">
                    <mxGeometry y="152" width="140" height="26" as="geometry"/>
                </mxCell>
                <mxCell id="X0TVPimXRAWHoc71iC0L-101" value="&lt;span style=&quot;font-family: Helvetica; font-size: 12px; font-style: normal; font-variant-ligatures: normal; font-variant-caps: normal; font-weight: 400; letter-spacing: normal; orphans: 2; text-align: center; text-indent: 0px; text-transform: none; widows: 2; word-spacing: 0px; -webkit-text-stroke-width: 0px; text-decoration-thickness: initial; text-decoration-style: initial; text-decoration-color: initial; float: none; display: inline !important;&quot;&gt;&amp;lt;&amp;lt;Boundary&amp;gt;&amp;gt;&lt;/span&gt;&lt;br style=&quot;border-color: rgb(0, 0, 0); font-family: Helvetica; font-size: 12px; font-style: normal; font-variant-ligatures: normal; font-variant-caps: normal; font-weight: 400; letter-spacing: normal; orphans: 2; text-align: center; text-indent: 0px; text-transform: none; widows: 2; word-spacing: 0px; -webkit-text-stroke-width: 0px; text-decoration-thickness: initial; text-decoration-style: initial; text-decoration-color: initial;&quot;&gt;&lt;u&gt;OrderListener&lt;/u&gt;" style="swimlane;fontStyle=0;align=center;verticalAlign=top;childLayout=stackLayout;horizontal=1;startSize=40;horizontalStack=0;resizeParent=1;resizeParentMax=0;resizeLast=0;collapsible=0;marginBottom=0;html=1;" vertex="1" parent="1">
                    <mxGeometry x="-280" y="650" width="140" height="100" as="geometry"/>
                </mxCell>
                <mxCell id="X0TVPimXRAWHoc71iC0L-102" value="" style="line;strokeWidth=1;fillColor=none;align=left;verticalAlign=middle;spacingTop=-1;spacingLeft=3;spacingRight=3;rotatable=0;labelPosition=right;points=[];portConstraint=eastwest;" vertex="1" parent="X0TVPimXRAWHoc71iC0L-101">
                    <mxGeometry y="40" width="140" height="8" as="geometry"/>
                </mxCell>
                <mxCell id="X0TVPimXRAWHoc71iC0L-106" value="SendPackageCompletion()" style="text;strokeColor=none;fillColor=none;align=left;verticalAlign=top;spacingLeft=4;spacingRight=4;overflow=hidden;rotatable=0;points=[[0,0.5],[1,0.5]];portConstraint=eastwest;" vertex="1" parent="X0TVPimXRAWHoc71iC0L-101">
                    <mxGeometry y="48" width="140" height="26" as="geometry"/>
                </mxCell>
                <mxCell id="X0TVPimXRAWHoc71iC0L-105" value="SendFeedback()" style="text;strokeColor=none;fillColor=none;align=left;verticalAlign=top;spacingLeft=4;spacingRight=4;overflow=hidden;rotatable=0;points=[[0,0.5],[1,0.5]];portConstraint=eastwest;" vertex="1" parent="X0TVPimXRAWHoc71iC0L-101">
                    <mxGeometry y="74" width="140" height="26" as="geometry"/>
                </mxCell>
                <mxCell id="X0TVPimXRAWHoc71iC0L-107" value="&lt;span style=&quot;font-family: Helvetica; font-size: 12px; font-style: normal; font-variant-ligatures: normal; font-variant-caps: normal; font-weight: 400; letter-spacing: normal; orphans: 2; text-align: center; text-indent: 0px; text-transform: none; widows: 2; word-spacing: 0px; -webkit-text-stroke-width: 0px; text-decoration-thickness: initial; text-decoration-style: initial; text-decoration-color: initial; float: none; display: inline !important;&quot;&gt;&amp;lt;&amp;lt;Boundary&amp;gt;&amp;gt;&lt;/span&gt;&lt;br style=&quot;border-color: rgb(0, 0, 0); font-family: Helvetica; font-size: 12px; font-style: normal; font-variant-ligatures: normal; font-variant-caps: normal; font-weight: 400; letter-spacing: normal; orphans: 2; text-align: center; text-indent: 0px; text-transform: none; widows: 2; word-spacing: 0px; -webkit-text-stroke-width: 0px; text-decoration-thickness: initial; text-decoration-style: initial; text-decoration-color: initial;&quot;&gt;&lt;u&gt;FeedbackController&lt;/u&gt;" style="swimlane;fontStyle=0;align=center;verticalAlign=top;childLayout=stackLayout;horizontal=1;startSize=40;horizontalStack=0;resizeParent=1;resizeParentMax=0;resizeLast=0;collapsible=0;marginBottom=0;html=1;" vertex="1" parent="1">
                    <mxGeometry x="-480" y="660" width="140" height="100" as="geometry"/>
                </mxCell>
                <mxCell id="X0TVPimXRAWHoc71iC0L-108" value="" style="line;strokeWidth=1;fillColor=none;align=left;verticalAlign=middle;spacingTop=-1;spacingLeft=3;spacingRight=3;rotatable=0;labelPosition=right;points=[];portConstraint=eastwest;" vertex="1" parent="X0TVPimXRAWHoc71iC0L-107">
                    <mxGeometry y="40" width="140" height="8" as="geometry"/>
                </mxCell>
                <mxCell id="X0TVPimXRAWHoc71iC0L-109" value="SendPackageCompletion()" style="text;strokeColor=none;fillColor=none;align=left;verticalAlign=top;spacingLeft=4;spacingRight=4;overflow=hidden;rotatable=0;points=[[0,0.5],[1,0.5]];portConstraint=eastwest;" vertex="1" parent="X0TVPimXRAWHoc71iC0L-107">
                    <mxGeometry y="48" width="140" height="26" as="geometry"/>
                </mxCell>
                <mxCell id="X0TVPimXRAWHoc71iC0L-110" value="SendFeedback()" style="text;strokeColor=none;fillColor=none;align=left;verticalAlign=top;spacingLeft=4;spacingRight=4;overflow=hidden;rotatable=0;points=[[0,0.5],[1,0.5]];portConstraint=eastwest;" vertex="1" parent="X0TVPimXRAWHoc71iC0L-107">
                    <mxGeometry y="74" width="140" height="26" as="geometry"/>
                </mxCell>
            </root>
        </mxGraphModel>
    </diagram>
    <diagram id="1xrTCeCXLpbqKfW3dNeI" name="Collab">
        <mxGraphModel grid="1" page="1" gridSize="10" guides="1" tooltips="1" connect="1" arrows="1" fold="1" pageScale="1" pageWidth="850" pageHeight="1100" math="0" shadow="0">
            <root>
                <mxCell id="0"/>
                <mxCell id="1" parent="0"/>
                <mxCell id="7" style="edgeStyle=none;html=1;startArrow=none;startFill=0;endArrow=none;endFill=0;" parent="1" source="8" target="31" edge="1">
                    <mxGeometry relative="1" as="geometry"/>
                </mxCell>
                <mxCell id="8" value="Customer" style="shape=umlActor;verticalLabelPosition=bottom;verticalAlign=top;html=1;outlineConnect=0;" parent="1" vertex="1">
                    <mxGeometry x="30" y="190" width="30" height="60" as="geometry"/>
                </mxCell>
                <mxCell id="n_59s5ExofEKkA8bmpHv-62" style="edgeStyle=none;html=1;endArrow=none;endFill=0;" parent="1" source="9" target="13" edge="1">
                    <mxGeometry relative="1" as="geometry"/>
                </mxCell>
                <mxCell id="9" value="Feedback" style="ellipse;shape=umlEntity;whiteSpace=wrap;html=1;" parent="1" vertex="1">
                    <mxGeometry x="740.37" y="520" width="80" height="80" as="geometry"/>
                </mxCell>
                <mxCell id="10" style="edgeStyle=none;html=1;startArrow=none;startFill=0;endArrow=none;endFill=0;" parent="1" source="13" target="31" edge="1">
                    <mxGeometry relative="1" as="geometry"/>
                </mxCell>
                <mxCell id="11" style="edgeStyle=none;html=1;startArrow=none;startFill=0;endArrow=none;endFill=0;" parent="1" source="13" target="26" edge="1">
                    <mxGeometry relative="1" as="geometry"/>
                </mxCell>
                <mxCell id="13" value="Feedback&lt;br&gt;Controller" style="ellipse;shape=umlControl;whiteSpace=wrap;html=1;" parent="1" vertex="1">
                    <mxGeometry x="550" y="340" width="70" height="80" as="geometry"/>
                </mxCell>
                <mxCell id="n_59s5ExofEKkA8bmpHv-60" style="edgeStyle=none;html=1;endArrow=none;endFill=0;" parent="1" source="15" target="13" edge="1">
                    <mxGeometry relative="1" as="geometry"/>
                </mxCell>
                <mxCell id="15" value="OrderListener" style="shape=umlBoundary;whiteSpace=wrap;html=1;" parent="1" vertex="1">
                    <mxGeometry x="220" y="340" width="100" height="80" as="geometry"/>
                </mxCell>
                <mxCell id="16" style="edgeStyle=none;html=1;startArrow=none;startFill=0;endArrow=none;endFill=0;" parent="1" source="17" target="15" edge="1">
                    <mxGeometry relative="1" as="geometry"/>
                </mxCell>
                <mxCell id="17" value="Logistic provider" style="shape=umlActor;verticalLabelPosition=bottom;verticalAlign=top;html=1;outlineConnect=0;" parent="1" vertex="1">
                    <mxGeometry x="30" y="350" width="30" height="60" as="geometry"/>
                </mxCell>
                <mxCell id="18" value="" style="endArrow=classic;html=1;endFill=1;" parent="1" edge="1">
                    <mxGeometry width="50" height="50" relative="1" as="geometry">
                        <mxPoint x="90" y="370" as="sourcePoint"/>
                        <mxPoint x="200" y="370" as="targetPoint"/>
                    </mxGeometry>
                </mxCell>
                <mxCell id="19" value="&lt;font style=&quot;font-size: 12px;&quot;&gt;1. SendPackageCompletion()&lt;/font&gt;" style="edgeLabel;html=1;align=center;verticalAlign=middle;resizable=0;points=[];" parent="18" vertex="1" connectable="0">
                    <mxGeometry x="0.4173" y="-3" relative="1" as="geometry">
                        <mxPoint x="-28" y="-23" as="offset"/>
                    </mxGeometry>
                </mxCell>
                <mxCell id="20" value="" style="endArrow=classic;html=1;endFill=1;" parent="1" edge="1">
                    <mxGeometry width="50" height="50" relative="1" as="geometry">
                        <mxPoint x="340" y="470" as="sourcePoint"/>
                        <mxPoint x="460" y="420" as="targetPoint"/>
                    </mxGeometry>
                </mxCell>
                <mxCell id="21" value="&lt;font style=&quot;font-size: 12px;&quot;&gt;3.1 RequestFeedback()&lt;/font&gt;" style="edgeLabel;html=1;align=center;verticalAlign=middle;resizable=0;points=[];" parent="20" vertex="1" connectable="0">
                    <mxGeometry x="0.4173" y="-3" relative="1" as="geometry">
                        <mxPoint x="-107" y="3" as="offset"/>
                    </mxGeometry>
                </mxCell>
                <mxCell id="22" value="" style="endArrow=classic;html=1;endFill=1;" parent="1" edge="1">
                    <mxGeometry width="50" height="50" relative="1" as="geometry">
                        <mxPoint x="760" y="190" as="sourcePoint"/>
                        <mxPoint x="690" y="280" as="targetPoint"/>
                    </mxGeometry>
                </mxCell>
                <mxCell id="23" value="2.1 SendFeedbackForm()" style="edgeLabel;html=1;align=center;verticalAlign=middle;resizable=0;points=[];rotation=0;fontSize=12;" parent="22" vertex="1" connectable="0">
                    <mxGeometry x="0.4173" y="-3" relative="1" as="geometry">
                        <mxPoint x="108" y="-32" as="offset"/>
                    </mxGeometry>
                </mxCell>
                <mxCell id="24" value="" style="endArrow=classic;html=1;endFill=1;" parent="1" edge="1">
                    <mxGeometry width="50" height="50" relative="1" as="geometry">
                        <mxPoint x="90" y="210" as="sourcePoint"/>
                        <mxPoint x="200" y="210" as="targetPoint"/>
                    </mxGeometry>
                </mxCell>
                <mxCell id="25" value="&lt;font style=&quot;font-size: 12px;&quot;&gt;2.4 DoFeedback()&lt;/font&gt;" style="edgeLabel;html=1;align=center;verticalAlign=middle;resizable=0;points=[];" parent="24" vertex="1" connectable="0">
                    <mxGeometry x="0.4173" y="-3" relative="1" as="geometry">
                        <mxPoint x="-28" y="-13" as="offset"/>
                    </mxGeometry>
                </mxCell>
                <mxCell id="26" value="Feedback&lt;br&gt;Form" style="ellipse;shape=umlEntity;whiteSpace=wrap;html=1;" parent="1" vertex="1">
                    <mxGeometry x="740" y="90" width="80" height="80" as="geometry"/>
                </mxCell>
                <mxCell id="27" value="" style="endArrow=classic;html=1;endFill=1;" parent="1" edge="1">
                    <mxGeometry width="50" height="50" relative="1" as="geometry">
                        <mxPoint x="610" y="310" as="sourcePoint"/>
                        <mxPoint x="680" y="230" as="targetPoint"/>
                    </mxGeometry>
                </mxCell>
                <mxCell id="28" value="2. getFeedbackForm()" style="edgeLabel;html=1;align=center;verticalAlign=middle;resizable=0;points=[];rotation=0;fontSize=12;" parent="27" vertex="1" connectable="0">
                    <mxGeometry x="0.4173" y="-3" relative="1" as="geometry">
                        <mxPoint x="-55" y="-35" as="offset"/>
                    </mxGeometry>
                </mxCell>
                <mxCell id="29" style="edgeStyle=none;html=1;startArrow=none;startFill=0;endArrow=none;endFill=0;" parent="1" source="30" target="13" edge="1">
                    <mxGeometry relative="1" as="geometry"/>
                </mxCell>
                <mxCell id="30" value="Orders" style="ellipse;shape=umlEntity;whiteSpace=wrap;html=1;" parent="1" vertex="1">
                    <mxGeometry x="820.37" y="340" width="80" height="80" as="geometry"/>
                </mxCell>
                <mxCell id="31" value="ChatBot" style="shape=umlBoundary;whiteSpace=wrap;html=1;" parent="1" vertex="1">
                    <mxGeometry x="220" y="180" width="100" height="80" as="geometry"/>
                </mxCell>
                <mxCell id="35" value="" style="endArrow=classic;html=1;endFill=1;" parent="1" edge="1">
                    <mxGeometry width="50" height="50" relative="1" as="geometry">
                        <mxPoint x="640" y="460" as="sourcePoint"/>
                        <mxPoint x="720" y="530" as="targetPoint"/>
                    </mxGeometry>
                </mxCell>
                <mxCell id="36" value="2.6 SendFeedback()&lt;br&gt;3.2 RequestFeedback()" style="edgeLabel;html=1;align=center;verticalAlign=middle;resizable=0;points=[];fontSize=12;" parent="35" connectable="0" vertex="1">
                    <mxGeometry x="0.4173" y="-3" relative="1" as="geometry">
                        <mxPoint x="-70" y="5" as="offset"/>
                    </mxGeometry>
                </mxCell>
                <mxCell id="37" style="edgeStyle=none;html=1;startArrow=none;startFill=0;endArrow=none;endFill=0;" parent="1" source="38" target="54" edge="1">
                    <mxGeometry relative="1" as="geometry"/>
                </mxCell>
                <mxCell id="38" value="Seller" style="shape=umlActor;verticalLabelPosition=bottom;verticalAlign=top;html=1;outlineConnect=0;" parent="1" vertex="1">
                    <mxGeometry x="30" y="500" width="30" height="60" as="geometry"/>
                </mxCell>
                <mxCell id="39" value="" style="endArrow=none;html=1;endFill=0;startArrow=classic;startFill=1;" parent="1" edge="1">
                    <mxGeometry width="50" height="50" relative="1" as="geometry">
                        <mxPoint x="670" y="400" as="sourcePoint"/>
                        <mxPoint x="770.37" y="400" as="targetPoint"/>
                    </mxGeometry>
                </mxCell>
                <mxCell id="40" value="1.3 SendOrderComplete()" style="edgeLabel;html=1;align=center;verticalAlign=middle;resizable=0;points=[];rotation=0;fontSize=12;" parent="39" connectable="0" vertex="1">
                    <mxGeometry x="0.4173" y="-3" relative="1" as="geometry">
                        <mxPoint x="-17" y="11" as="offset"/>
                    </mxGeometry>
                </mxCell>
                <mxCell id="43" value="" style="endArrow=none;html=1;endFill=0;startArrow=classic;startFill=1;" parent="1" edge="1">
                    <mxGeometry width="50" height="50" relative="1" as="geometry">
                        <mxPoint x="325" y="270" as="sourcePoint"/>
                        <mxPoint x="425" y="320" as="targetPoint"/>
                    </mxGeometry>
                </mxCell>
                <mxCell id="44" value="2.2 SendFeedbackForm()" style="edgeLabel;html=1;align=center;verticalAlign=middle;resizable=0;points=[];" parent="43" connectable="0" vertex="1">
                    <mxGeometry x="0.4173" y="-3" relative="1" as="geometry">
                        <mxPoint x="-80" y="-5" as="offset"/>
                    </mxGeometry>
                </mxCell>
                <mxCell id="45" value="" style="endArrow=none;html=1;endFill=0;startArrow=classic;startFill=1;" parent="1" edge="1">
                    <mxGeometry width="50" height="50" relative="1" as="geometry">
                        <mxPoint x="90" y="230" as="sourcePoint"/>
                        <mxPoint x="200" y="230" as="targetPoint"/>
                    </mxGeometry>
                </mxCell>
                <mxCell id="46" value="&lt;font style=&quot;font-size: 12px;&quot;&gt;2.3 SendFeedbackForm()&lt;/font&gt;" style="edgeLabel;html=1;align=center;verticalAlign=middle;resizable=0;points=[];" parent="45" connectable="0" vertex="1">
                    <mxGeometry x="0.4173" y="-3" relative="1" as="geometry">
                        <mxPoint x="-28" y="17" as="offset"/>
                    </mxGeometry>
                </mxCell>
                <mxCell id="47" value="" style="endArrow=classic;html=1;endFill=1;" parent="1" edge="1">
                    <mxGeometry width="50" height="50" relative="1" as="geometry">
                        <mxPoint x="360" y="240" as="sourcePoint"/>
                        <mxPoint x="460" y="290" as="targetPoint"/>
                    </mxGeometry>
                </mxCell>
                <mxCell id="48" value="2.5. SendFeedback()" style="edgeLabel;html=1;align=center;verticalAlign=middle;resizable=0;points=[];rotation=25;fontSize=12;" parent="47" connectable="0" vertex="1">
                    <mxGeometry x="0.4173" y="-3" relative="1" as="geometry">
                        <mxPoint x="-12" y="-25" as="offset"/>
                    </mxGeometry>
                </mxCell>
                <mxCell id="51" value="" style="endArrow=classic;html=1;endFill=1;" parent="1" edge="1">
                    <mxGeometry width="50" height="50" relative="1" as="geometry">
                        <mxPoint x="350" y="370" as="sourcePoint"/>
                        <mxPoint x="445" y="370" as="targetPoint"/>
                    </mxGeometry>
                </mxCell>
                <mxCell id="52" value="1.1 SendPackageCompletion()" style="edgeLabel;html=1;align=center;verticalAlign=middle;resizable=0;points=[];fontSize=12;" parent="51" connectable="0" vertex="1">
                    <mxGeometry x="0.4173" y="-3" relative="1" as="geometry">
                        <mxPoint x="-17" y="-23" as="offset"/>
                    </mxGeometry>
                </mxCell>
                <mxCell id="n_59s5ExofEKkA8bmpHv-61" style="edgeStyle=none;html=1;endArrow=none;endFill=0;" parent="1" source="54" target="13" edge="1">
                    <mxGeometry relative="1" as="geometry"/>
                </mxCell>
                <mxCell id="54" value="Feedback View page" style="shape=umlBoundary;whiteSpace=wrap;html=1;" parent="1" vertex="1">
                    <mxGeometry x="220" y="490" width="100" height="80" as="geometry"/>
                </mxCell>
                <mxCell id="55" value="" style="endArrow=classic;html=1;endFill=1;" parent="1" edge="1">
                    <mxGeometry width="50" height="50" relative="1" as="geometry">
                        <mxPoint x="90" y="520" as="sourcePoint"/>
                        <mxPoint x="200" y="520" as="targetPoint"/>
                    </mxGeometry>
                </mxCell>
                <mxCell id="56" value="3. RequestFeedback()" style="edgeLabel;html=1;align=center;verticalAlign=middle;resizable=0;points=[];fontSize=12;" parent="55" connectable="0" vertex="1">
                    <mxGeometry x="0.4173" y="-3" relative="1" as="geometry">
                        <mxPoint x="-28" y="-23" as="offset"/>
                    </mxGeometry>
                </mxCell>
                <mxCell id="57" value="" style="endArrow=classic;html=1;endFill=1;" parent="1" edge="1">
                    <mxGeometry width="50" height="50" relative="1" as="geometry">
                        <mxPoint x="750" y="500" as="sourcePoint"/>
                        <mxPoint x="680" y="440" as="targetPoint"/>
                    </mxGeometry>
                </mxCell>
                <mxCell id="58" value="3.3 ReturnFeedback()" style="edgeLabel;html=1;align=center;verticalAlign=middle;resizable=0;points=[];fontSize=12;" parent="57" connectable="0" vertex="1">
                    <mxGeometry x="0.4173" y="-3" relative="1" as="geometry">
                        <mxPoint x="78" y="-5" as="offset"/>
                    </mxGeometry>
                </mxCell>
                <mxCell id="59" value="" style="endArrow=none;html=1;endFill=0;startArrow=classic;startFill=1;" parent="1" edge="1">
                    <mxGeometry width="50" height="50" relative="1" as="geometry">
                        <mxPoint x="360" y="510" as="sourcePoint"/>
                        <mxPoint x="490" y="450" as="targetPoint"/>
                    </mxGeometry>
                </mxCell>
                <mxCell id="60" value="3.4 ReturnFeedback()" style="edgeLabel;html=1;align=center;verticalAlign=middle;resizable=0;points=[];rotation=0;fontSize=12;" parent="59" connectable="0" vertex="1">
                    <mxGeometry x="0.4173" y="-3" relative="1" as="geometry">
                        <mxPoint x="17" y="40" as="offset"/>
                    </mxGeometry>
                </mxCell>
                <mxCell id="oi6wCrDe3kLvVTNX_Anx-60" value="" style="endArrow=classic;html=1;endFill=1;" parent="1" edge="1">
                    <mxGeometry width="50" height="50" relative="1" as="geometry">
                        <mxPoint x="670" y="360" as="sourcePoint"/>
                        <mxPoint x="790" y="360" as="targetPoint"/>
                    </mxGeometry>
                </mxCell>
                <mxCell id="oi6wCrDe3kLvVTNX_Anx-61" value="1.2 SendPackageCompletion()" style="edgeLabel;html=1;align=center;verticalAlign=middle;resizable=0;points=[];rotation=0;fontSize=12;" parent="oi6wCrDe3kLvVTNX_Anx-60" connectable="0" vertex="1">
                    <mxGeometry x="0.4173" y="-3" relative="1" as="geometry">
                        <mxPoint x="-36" y="-23" as="offset"/>
                    </mxGeometry>
                </mxCell>
                <mxCell id="GpGYv6WQzTeApLS-arH1-60" value="" style="endArrow=none;html=1;endFill=0;startArrow=classic;startFill=1;" parent="1" edge="1">
                    <mxGeometry width="50" height="50" relative="1" as="geometry">
                        <mxPoint x="90" y="540" as="sourcePoint"/>
                        <mxPoint x="200" y="540" as="targetPoint"/>
                    </mxGeometry>
                </mxCell>
                <mxCell id="GpGYv6WQzTeApLS-arH1-61" value="3.5 ReturnFeedback()" style="edgeLabel;html=1;align=center;verticalAlign=middle;resizable=0;points=[];rotation=0;fontSize=12;" parent="GpGYv6WQzTeApLS-arH1-60" connectable="0" vertex="1">
                    <mxGeometry x="0.4173" y="-3" relative="1" as="geometry">
                        <mxPoint x="-28" y="17" as="offset"/>
                    </mxGeometry>
                </mxCell>
            </root>
        </mxGraphModel>
    </diagram>
    <diagram id="i7S63YO-DPJJQrpZpGjw" name="Page-3">
        <mxGraphModel dx="976" dy="599" grid="1" gridSize="10" guides="1" tooltips="1" connect="1" arrows="1" fold="1" page="1" pageScale="1" pageWidth="850" pageHeight="1100" math="0" shadow="0">
            <root>
                <mxCell id="0"/>
                <mxCell id="1" parent="0"/>
            </root>
        </mxGraphModel>
    </diagram>
</mxfile>